<svg width="1600" height="1120" viewBox="0 0 1600 1120" fill="none" xmlns="http://www.w3.org/2000/svg">
  <rect width="1600" height="1120" rx="44" fill="url(#paint0_linear)"/>
  <circle cx="1292" cy="226" r="152" fill="url(#paint1_radial)" fill-opacity="0.85"/>
  <circle cx="320" cy="294" r="192" fill="url(#paint2_radial)" fill-opacity="0.7"/>
  <rect x="144" y="168" width="1312" height="784" rx="34" fill="#0E1827" stroke="rgba(255,255,255,0.14)"/>
  <rect x="204" y="228" width="680" height="380" rx="24" fill="url(#paint3_linear)"/>
  <rect x="928" y="228" width="472" height="132" rx="24" fill="#122137"/>
  <rect x="928" y="390" width="472" height="132" rx="24" fill="#0F1C2D"/>
  <rect x="928" y="552" width="472" height="132" rx="24" fill="#13253D"/>
  <rect x="204" y="654" width="680" height="180" rx="24" fill="#101B2A"/>
  <path d="M276 776H614" stroke="#7FB6FF" stroke-width="18" stroke-linecap="round"/>
  <path d="M276 722H522" stroke="#DDE9FF" stroke-opacity="0.6" stroke-width="18" stroke-linecap="round"/>
  <path d="M276 464H812" stroke="#DBEDFF" stroke-opacity="0.92" stroke-width="18" stroke-linecap="round"/>
  <path d="M276 510H686" stroke="#7AB3FF" stroke-opacity="0.78" stroke-width="18" stroke-linecap="round"/>
  <path d="M276 556H584" stroke="#DDE9FF" stroke-opacity="0.42" stroke-width="18" stroke-linecap="round"/>
  <text x="800" y="1032" fill="#DCEBFF" font-family="Arial, sans-serif" font-size="36" text-anchor="middle">Replace with a personal workspace or lifestyle image</text>
  <defs>
    <linearGradient id="paint0_linear" x1="116" y1="72" x2="1512" y2="1044" gradientUnits="userSpaceOnUse">
      <stop stop-color="#08111D"/>
      <stop offset="1" stop-color="#040A13"/>
    </linearGradient>
    <radialGradient id="paint1_radial" cx="0" cy="0" r="1" gradientUnits="userSpaceOnUse" gradientTransform="translate(1292 226) rotate(90) scale(152)">
      <stop stop-color="#A0DBFF"/>
      <stop offset="1" stop-color="#A0DBFF" stop-opacity="0"/>
    </radialGradient>
    <radialGradient id="paint2_radial" cx="0" cy="0" r="1" gradientUnits="userSpaceOnUse" gradientTransform="translate(320 294) rotate(90) scale(192)">
      <stop stop-color="#6789FF"/>
      <stop offset="1" stop-color="#6789FF" stop-opacity="0"/>
    </radialGradient>
    <linearGradient id="paint3_linear" x1="204" y1="228" x2="884" y2="608" gradientUnits="userSpaceOnUse">
      <stop stop-color="#19314E"/>
      <stop offset="1" stop-color="#0E1C2D"/>
    </linearGradient>
  </defs>
</svg>
